<svg width="290" height="45" xmlns="http://www.w3.org/2000/svg">

 <g>
  <title>background</title>
  <rect fill="none" id="canvas_background" height="47" width="292" y="-1" x="-1"/>
 </g>
 <g>
  <title>Layer 1</title>
  <rect fill="#f4f4f4" id="svg_2" y="2.640071" x="2.5" width="57.08" height="39.84" class="st13"/>
  <path fill="#0c82eb" id="svg_3" d="m59.58,44.900071l-57.08,0c-1.34,0 -2.42,-1.08 -2.42,-2.42l0,-39.84c0,-1.34 1.08,-2.42 2.42,-2.42l57.08,0c1.34,0 2.42,1.08 2.42,2.42l0,39.84c0,1.34 -1.08,2.42 -2.42,2.42zm-54.66,-4.84l52.24,0l0,-35l-52.24,0l0,35z" class="st14"/>
  <path fill="#0c82eb" id="svg_4" d="m2.5,44.900071c-0.62,0 -1.24,-0.24 -1.71,-0.71c-0.94,-0.94 -0.94,-2.48 0,-3.42l19.51,-19.5c0.95,-0.94 2.48,-0.94 3.42,0c0.94,0.94 0.94,2.48 0,3.42l-19.51,19.5c-0.47,0.47 -1.09,0.71 -1.71,0.71z" class="st14"/>
  <path fill="#00b2e3" id="svg_5" d="m2.5,44.980071c-0.64,0 -1.28,-0.24 -1.77,-0.73c-0.98,-0.98 -0.98,-2.56 0,-3.54l19.51,-19.5c0.98,-0.98 2.56,-0.98 3.54,0c0.98,0.98 0.98,2.56 0,3.54l-19.51,19.5c-0.49,0.49 -1.13,0.73 -1.77,0.73z" class="st15"/>
  <path fill="#0c82eb" id="svg_6" d="m59.58,44.900071c-0.62,0 -1.24,-0.24 -1.71,-0.71l-19.51,-19.5c-0.94,-0.94 -0.95,-2.48 0,-3.42c0.94,-0.94 2.48,-0.94 3.42,0l19.51,19.5c0.94,0.94 0.95,2.48 0,3.42c-0.47,0.47 -1.09,0.71 -1.71,0.71z" class="st14"/>
  <path fill="#68a2b9" id="svg_7" d="m31.04,33.510071c-1.44,0 -2.84,-0.6 -3.84,-1.64l-26.44,-27.56c-0.67,-0.7 -0.86,-1.73 -0.48,-2.62c0.38,-0.89 1.25,-1.47 2.22,-1.47l57.08,0c0.97,0 1.84,0.58 2.22,1.47c0.38,0.89 0.19,1.92 -0.48,2.62l-26.44,27.56l0,0c-1,1.04 -2.4,1.64 -3.84,1.64zm-22.86,-28.45l22.52,23.47c0.24,0.25 0.46,0.25 0.7,0l0,0l22.51,-23.47l-45.73,0z" class="st16"/>
  <path fill="#00b2e3" id="svg_8" d="m2.5,32.700071c-1.38,0 -2.5,-1.12 -2.5,-2.5l0,-27.56c0,-1.38 1.12,-2.5 2.5,-2.5l27.1,0c1.38,0 2.5,1.12 2.5,2.5s-1.12,2.5 -2.5,2.5l-24.59,0l0,25.06c0,1.38 -1.12,2.5 -2.51,2.5z" class="st15"/>
  <path fill="#00b2e3" id="svg_9" d="m2.5,44.990071c-1.38,0 -2.5,-1.12 -2.5,-2.5l0,-12.29c0,-1.38 1.12,-2.5 2.5,-2.5s2.5,1.12 2.5,2.5l0,12.29c0.01,1.37 -1.11,2.5 -2.5,2.5z" class="st15"/>
  <path fill="#a2c5d3" id="svg_10" d="m28.95,32.620071c-0.64,0 -1.27,-0.25 -1.75,-0.74l-26.44,-27.57c-0.67,-0.7 -0.86,-1.73 -0.48,-2.62c0.38,-0.89 1.25,-1.47 2.22,-1.47l28.54,0c1.34,0 2.42,1.08 2.42,2.42s-1.08,2.42 -2.42,2.42l-22.86,0l22.52,23.47c0.93,0.96 0.89,2.5 -0.07,3.42c-0.48,0.44 -1.08,0.67 -1.68,0.67z" class="st17"/>
  <text font-style="italic" font-weight="bold" xml:space="preserve" text-anchor="start" font-family="Helvetica, Arial, sans-serif" font-size="24" id="svg_11" y="30.218737" x="71.250112" stroke-opacity="null" stroke-width="0" stroke="null" fill="#60607c">@yourdomain.com</text>
 </g>
</svg>