<svg xmlns="http://www.w3.org/2000/svg" viewBox="0 0 1000 575" width="1000" height="575" preserveAspectRatio="xMidYMid meet" style="width: 100%; height: 100%; transform: translate3d(0px, 0px, 0px);">
	<defs>
		<clipPath id="__lottie_element_172">
			<rect width="1000" height="575" x="0" y="0"></rect>
		</clipPath>
	</defs>
	<g clip-path="url(#__lottie_element_172)">
		<g transform="matrix(1.3633097410202026,0,0,1.3633097410202026,9.437528610229492,5.208990097045898)" opacity="1" style="display: block;">
			<g opacity="1" transform="matrix(1,0,0,1,423.64898681640625,283.40899658203125)">
				<path fill="rgb(62,60,85)" fill-opacity="1" d=" M-231.36599731445312,-0.6309999823570251 C-231.36599731445312,-0.6309999823570251 231.36700439453125,-0.6309999823570251 231.36700439453125,-0.6309999823570251 C231.36700439453125,-0.6309999823570251 231.36700439453125,0.6309999823570251 231.36700439453125,0.6309999823570251 C231.36700439453125,0.6309999823570251 -231.36599731445312,0.6309999823570251 -231.36599731445312,0.6309999823570251 C-231.36599731445312,0.6309999823570251 -231.36599731445312,-0.6309999823570251 -231.36599731445312,-0.6309999823570251z"></path>
			</g>
			<g opacity="1" transform="matrix(1,0,0,1,230.11500549316406,133.9010009765625)">
				<path fill="rgb(62,60,85)" fill-opacity="1" d=" M201.8179931640625,-121.86599731445312 C201.8179931640625,-121.86599731445312 37.57400131225586,-121.86599731445312 37.57400131225586,-121.86599731445312 C37.57400131225586,-121.86599731445312 37.57400131225586,-125.25199890136719 37.57400131225586,-125.25199890136719 C37.57400131225586,-125.25199890136719 -36.89699935913086,-125.25199890136719 -36.89699935913086,-125.25199890136719 C-36.89699935913086,-125.25199890136719 -36.89699935913086,-121.86599731445312 -36.89699935913086,-121.86599731445312 C-36.89699935913086,-121.86599731445312 -201.8179931640625,-121.86599731445312 -201.8179931640625,-121.86599731445312 C-207.9530029296875,-121.86599731445312 -212.927001953125,-116.89199829101562 -212.927001953125,-110.75700378417969 C-212.927001953125,-110.75700378417969 -212.927001953125,114.14199829101562 -212.927001953125,114.14199829101562 C-212.927001953125,120.27799987792969 -207.9530029296875,125.25199890136719 -201.8179931640625,125.25199890136719 C-201.8179931640625,125.25199890136719 201.8179931640625,125.25199890136719 201.8179931640625,125.25199890136719 C207.95399475097656,125.25199890136719 212.927001953125,120.27799987792969 212.927001953125,114.14199829101562 C212.927001953125,114.14199829101562 212.927001953125,-110.76899719238281 212.927001953125,-110.76899719238281 C212.92100524902344,-116.8949966430664 207.95700073242188,-121.85900115966797 201.83099365234375,-121.86599731445312 C201.83099365234375,-121.86599731445312 201.8179931640625,-121.86599731445312 201.8179931640625,-121.86599731445312z"></path>
			</g>
			<g opacity="1" transform="matrix(1,0,0,1,230.11599731445312,143.3679962158203)">
				<path fill="rgb(181,102,143)" fill-opacity="1" d=" M-198.0330047607422,-111.70999908447266 C-198.0330047607422,-111.70999908447266 198.0330047607422,-111.70999908447266 198.0330047607422,-111.70999908447266 C198.0330047607422,-111.70999908447266 198.0330047607422,111.70999908447266 198.0330047607422,111.70999908447266 C198.0330047607422,111.70999908447266 -198.0330047607422,111.70999908447266 -198.0330047607422,111.70999908447266 C-198.0330047607422,111.70999908447266 -198.0330047607422,-111.70999908447266 -198.0330047607422,-111.70999908447266z"></path>
			</g>
			<g opacity="1" transform="matrix(1,0,0,1,229.77699279785156,21.503000259399414)">
				<path fill="rgb(49,145,174)" fill-opacity="1" d=" M0,-4.063000202178955 C2.243000030517578,-4.063000202178955 4.061999797821045,-2.243000030517578 4.061999797821045,0 C4.061999797821045,2.24399995803833 2.243000030517578,4.063000202178955 0,4.063000202178955 C-2.24399995803833,4.063000202178955 -4.061999797821045,2.24399995803833 -4.061999797821045,0 C-4.061999797821045,-2.243000030517578 -2.24399995803833,-4.063000202178955 0,-4.063000202178955z"></path>
			</g>
			<g opacity="0.1" transform="matrix(1,0,0,1,173.48199462890625,143.3679962158203)">
				<path fill="rgb(0,0,0)" fill-opacity="1" d=" M141.3979949951172,111.70999908447266 C141.3979949951172,111.70999908447266 -141.3990020751953,111.70999908447266 -141.3990020751953,111.70999908447266 C-141.3990020751953,111.70999908447266 -141.3990020751953,-111.70999908447266 -141.3990020751953,-111.70999908447266 C-141.3990020751953,-111.70999908447266 141.3979949951172,111.70999908447266 141.3979949951172,111.70999908447266z"></path>
			</g>
			<g opacity="1" transform="matrix(1,0,0,1,340.69000244140625,156.01499938964844)">
				<path fill="rgb(62,60,85)" fill-opacity="1" d=" M-18.499000549316406,-3.865000009536743 C-18.499000549316406,-3.865000009536743 18.499000549316406,-3.865000009536743 18.499000549316406,-3.865000009536743 C18.499000549316406,-3.865000009536743 18.499000549316406,3.865000009536743 18.499000549316406,3.865000009536743 C18.499000549316406,3.865000009536743 -18.499000549316406,3.865000009536743 -18.499000549316406,3.865000009536743 C-18.499000549316406,3.865000009536743 -18.499000549316406,-3.865000009536743 -18.499000549316406,-3.865000009536743z"></path>
			</g>
			<g opacity="1" transform="matrix(1,0,0,1,340.68798828125,93.61900329589844)">
				<path fill="rgb(62,60,85)" fill-opacity="1" d=" M-63.224998474121094,-1.656000018119812 C-63.224998474121094,-1.656000018119812 63.224998474121094,-1.656000018119812 63.224998474121094,-1.656000018119812 C63.224998474121094,-1.656000018119812 63.224998474121094,1.656000018119812 63.224998474121094,1.656000018119812 C63.224998474121094,1.656000018119812 -63.224998474121094,1.656000018119812 -63.224998474121094,1.656000018119812 C-63.224998474121094,1.656000018119812 -63.224998474121094,-1.656000018119812 -63.224998474121094,-1.656000018119812z"></path>
			</g>
			<g opacity="1" transform="matrix(1,0,0,1,340.68798828125,104.10900115966797)">
				<path fill="rgb(62,60,85)" fill-opacity="1" d=" M-63.224998474121094,-1.656000018119812 C-63.224998474121094,-1.656000018119812 63.224998474121094,-1.656000018119812 63.224998474121094,-1.656000018119812 C63.224998474121094,-1.656000018119812 63.224998474121094,1.656000018119812 63.224998474121094,1.656000018119812 C63.224998474121094,1.656000018119812 -63.224998474121094,1.656000018119812 -63.224998474121094,1.656000018119812 C-63.224998474121094,1.656000018119812 -63.224998474121094,-1.656000018119812 -63.224998474121094,-1.656000018119812z"></path>
			</g>
			<g opacity="1" transform="matrix(1,0,0,1,340.68798828125,114.60099792480469)">
				<path fill="rgb(62,60,85)" fill-opacity="1" d=" M-63.224998474121094,-1.656000018119812 C-63.224998474121094,-1.656000018119812 63.224998474121094,-1.656000018119812 63.224998474121094,-1.656000018119812 C63.224998474121094,-1.656000018119812 63.224998474121094,1.656000018119812 63.224998474121094,1.656000018119812 C63.224998474121094,1.656000018119812 -63.224998474121094,1.656000018119812 -63.224998474121094,1.656000018119812 C-63.224998474121094,1.656000018119812 -63.224998474121094,-1.656000018119812 -63.224998474121094,-1.656000018119812z"></path>
			</g>
			<g opacity="1" transform="matrix(1,0,0,1,340.68798828125,125.09300231933594)">
				<path fill="rgb(62,60,85)" fill-opacity="1" d=" M-63.224998474121094,-1.656000018119812 C-63.224998474121094,-1.656000018119812 63.224998474121094,-1.656000018119812 63.224998474121094,-1.656000018119812 C63.224998474121094,-1.656000018119812 63.224998474121094,1.656000018119812 63.224998474121094,1.656000018119812 C63.224998474121094,1.656000018119812 -63.224998474121094,1.656000018119812 -63.224998474121094,1.656000018119812 C-63.224998474121094,1.656000018119812 -63.224998474121094,-1.656000018119812 -63.224998474121094,-1.656000018119812z"></path>
			</g>
			<g opacity="1" transform="matrix(1,0,0,1,340.68798828125,135.5850067138672)">
				<path fill="rgb(62,60,85)" fill-opacity="1" d=" M-63.224998474121094,-1.656000018119812 C-63.224998474121094,-1.656000018119812 63.224998474121094,-1.656000018119812 63.224998474121094,-1.656000018119812 C63.224998474121094,-1.656000018119812 63.224998474121094,1.656000018119812 63.224998474121094,1.656000018119812 C63.224998474121094,1.656000018119812 -63.224998474121094,1.656000018119812 -63.224998474121094,1.656000018119812 C-63.224998474121094,1.656000018119812 -63.224998474121094,-1.656000018119812 -63.224998474121094,-1.656000018119812z"></path>
			</g>
			<g opacity="1" transform="matrix(1,0,0,1,396.18499755859375,43.922000885009766)">
				<path fill="rgb(241,241,241)" fill-opacity="1" d=" M-7.730999946594238,-7.730000019073486 C-7.730999946594238,-7.730000019073486 7.730999946594238,-7.730000019073486 7.730999946594238,-7.730000019073486 C7.730999946594238,-7.730000019073486 7.730999946594238,7.730000019073486 7.730999946594238,7.730000019073486 C7.730999946594238,7.730000019073486 -7.730999946594238,7.730000019073486 -7.730999946594238,7.730000019073486 C-7.730999946594238,7.730000019073486 -7.730999946594238,-7.730000019073486 -7.730999946594238,-7.730000019073486z"></path>
			</g>
			<g opacity="1" transform="matrix(1,0,0,1,401.7070007324219,49.44200134277344)">
				<path fill="rgb(62,60,85)" fill-opacity="1" d=" M9.38700008392334,9.38700008392334 C9.38700008392334,9.38700008392334 -9.38700008392334,9.38700008392334 -9.38700008392334,9.38700008392334 C-9.38700008392334,9.38700008392334 -9.38700008392334,-9.38700008392334 -9.38700008392334,-9.38700008392334 C-9.38700008392334,-9.38700008392334 9.38700008392334,-9.38700008392334 9.38700008392334,-9.38700008392334 C9.38700008392334,-9.38700008392334 9.38700008392334,9.38700008392334 9.38700008392334,9.38700008392334z M-8.564000129699707,8.569999694824219 C-8.564000129699707,8.569999694824219 8.57699966430664,8.569999694824219 8.57699966430664,8.569999694824219 C8.57699966430664,8.569999694824219 8.57699966430664,-8.571000099182129 8.57699966430664,-8.571000099182129 C8.57699966430664,-8.571000099182129 -8.564000129699707,-8.571000099182129 -8.564000129699707,-8.571000099182129 C-8.564000129699707,-8.571000099182129 -8.564000129699707,8.569999694824219 -8.564000129699707,8.569999694824219z"></path>
			</g>
			<g opacity="1" transform="matrix(1,0,0,1,233.82200622558594,265.60198974609375)">
				<path fill="rgb(62,60,85)" fill-opacity="1" d=" M220.3419952392578,-14.585000038146973 C220.3419952392578,-14.585000038146973 181.68699645996094,-14.585000038146973 181.68699645996094,-14.585000038146973 C181.68699645996094,-14.585000038146973 181.68699645996094,-17.365999221801758 181.68699645996094,-17.365999221801758 C181.68699645996094,-17.67099952697754 181.4409942626953,-17.91699981689453 181.13699340820312,-17.91699981689453 C181.13699340820312,-17.91699981689453 181.13400268554688,-17.91699981689453 181.13400268554688,-17.91699981689453 C181.13400268554688,-17.91699981689453 167.88099670410156,-17.91699981689453 167.88099670410156,-17.91699981689453 C167.5760040283203,-17.91699981689453 167.3280029296875,-17.67099952697754 167.32699584960938,-17.365999221801758 C167.32699584960938,-17.365999221801758 167.32699584960938,-14.579999923706055 167.32699584960938,-14.579999923706055 C167.32699584960938,-14.579999923706055 159.04299926757812,-14.579999923706055 159.04299926757812,-14.579999923706055 C159.04299926757812,-14.579999923706055 159.04299926757812,-17.365999221801758 159.04299926757812,-17.365999221801758 C159.04200744628906,-17.67099952697754 158.79299926757812,-17.91699981689453 158.48800659179688,-17.91699981689453 C158.48800659179688,-17.91699981689453 145.23800659179688,-17.91699981689453 145.23800659179688,-17.91699981689453 C144.93499755859375,-17.91900062561035 144.68699645996094,-17.67300033569336 144.68600463867188,-17.368999481201172 C144.68600463867188,-17.368999481201172 144.68600463867188,-17.365999221801758 144.68600463867188,-17.365999221801758 C144.68600463867188,-17.365999221801758 144.68600463867188,-14.579999923706055 144.68600463867188,-14.579999923706055 C144.68600463867188,-14.579999923706055 136.4040069580078,-14.579999923706055 136.4040069580078,-14.579999923706055 C136.4040069580078,-14.579999923706055 136.4040069580078,-17.365999221801758 136.4040069580078,-17.365999221801758 C136.4040069580078,-17.67099952697754 136.15699768066406,-17.91699981689453 135.85299682617188,-17.91699981689453 C135.85299682617188,-17.91699981689453 135.8509979248047,-17.91699981689453 135.8509979248047,-17.91699981689453 C135.8509979248047,-17.91699981689453 122.59600067138672,-17.91699981689453 122.59600067138672,-17.91699981689453 C122.29199981689453,-17.91900062561035 122.04499816894531,-17.67300033569336 122.04399871826172,-17.368999481201172 C122.04399871826172,-17.368999481201172 122.04399871826172,-17.365999221801758 122.04399871826172,-17.365999221801758 C122.04399871826172,-17.365999221801758 122.04399871826172,-14.579999923706055 122.04399871826172,-14.579999923706055 C122.04399871826172,-14.579999923706055 113.76200103759766,-14.579999923706055 113.76200103759766,-14.579999923706055 C113.76200103759766,-14.579999923706055 113.76200103759766,-17.365999221801758 113.76200103759766,-17.365999221801758 C113.76200103759766,-17.67099952697754 113.51499938964844,-17.91699981689453 113.21099853515625,-17.91699981689453 C113.21099853515625,-17.91699981689453 113.20800018310547,-17.91699981689453 113.20800018310547,-17.91699981689453 C113.20800018310547,-17.91699981689453 99.9540023803711,-17.91699981689453 99.9540023803711,-17.91699981689453 C99.6500015258789,-17.91900062561035 99.40299987792969,-17.67300033569336 99.4020004272461,-17.368999481201172 C99.4020004272461,-17.368999481201172 99.4020004272461,-17.365999221801758 99.4020004272461,-17.365999221801758 C99.4020004272461,-17.365999221801758 99.4020004272461,-14.579999923706055 99.4020004272461,-14.579999923706055 C99.4020004272461,-14.579999923706055 91.12000274658203,-14.579999923706055 91.12000274658203,-14.579999923706055 C91.12000274658203,-14.579999923706055 91.12000274658203,-17.365999221801758 91.12000274658203,-17.365999221801758 C91.12000274658203,-17.67099952697754 90.8740005493164,-17.91699981689453 90.56900024414062,-17.91699981689453 C90.56900024414062,-17.91699981689453 90.56700134277344,-17.91699981689453 90.56700134277344,-17.91699981689453 C90.56700134277344,-17.91699981689453 77.31300354003906,-17.91699981689453 77.31300354003906,-17.91699981689453 C77.00900268554688,-17.91900062561035 76.76100158691406,-17.67300033569336 76.76000213623047,-17.368999481201172 C76.76000213623047,-17.368999481201172 76.76000213623047,-17.365999221801758 76.76000213623047,-17.365999221801758 C76.76000213623047,-17.365999221801758 76.76000213623047,-14.579999923706055 76.76000213623047,-14.579999923706055 C76.76000213623047,-14.579999923706055 68.47799682617188,-14.579999923706055 68.47799682617188,-14.579999923706055 C68.47799682617188,-14.579999923706055 68.47799682617188,-17.365999221801758 68.47799682617188,-17.365999221801758 C68.47699737548828,-17.67099952697754 68.22899627685547,-17.91699981689453 67.92400360107422,-17.91699981689453 C67.92400360107422,-17.91699981689453 54.67100143432617,-17.91699981689453 54.67100143432617,-17.91699981689453 C54.367000579833984,-17.91699981689453 54.11899948120117,-17.67099952697754 54.11800003051758,-17.365999221801758 C54.11800003051758,-17.365999221801758 54.11800003051758,-14.579999923706055 54.11800003051758,-14.579999923706055 C54.11800003051758,-14.579999923706055 45.83700180053711,-14.579999923706055 45.83700180053711,-14.579999923706055 C45.83700180053711,-14.579999923706055 45.83700180053711,-17.365999221801758 45.83700180053711,-17.365999221801758 C45.83700180053711,-17.67099952697754 45.59000015258789,-17.91699981689453 45.28499984741211,-17.91699981689453 C45.28499984741211,-17.91699981689453 45.28300094604492,-17.91699981689453 45.28300094604492,-17.91699981689453 C45.28300094604492,-17.91699981689453 -58.52000045776367,-17.91699981689453 -58.52000045776367,-17.91699981689453 C-58.82500076293945,-17.91699981689453 -59.073001861572266,-17.67099952697754 -59.07400131225586,-17.365999221801758 C-59.07400131225586,-17.365999221801758 -59.07400131225586,-14.579999923706055 -59.07400131225586,-14.579999923706055 C-59.07400131225586,-14.579999923706055 -67.3499984741211,-14.579999923706055 -67.3499984741211,-14.579999923706055 C-67.3499984741211,-14.579999923706055 -67.3499984741211,-17.365999221801758 -67.3499984741211,-17.365999221801758 C-67.35199737548828,-17.67099952697754 -67.5989990234375,-17.91699981689453 -67.90399932861328,-17.91699981689453 C-67.90399932861328,-17.91699981689453 -81.15799713134766,-17.91699981689453 -81.15799713134766,-17.91699981689453 C-81.46199798583984,-17.91900062561035 -81.70899963378906,-17.67300033569336 -81.71099853515625,-17.368999481201172 C-81.71099853515625,-17.368999481201172 -81.71099853515625,-17.365999221801758 -81.71099853515625,-17.365999221801758 C-81.71099853515625,-17.365999221801758 -81.71099853515625,-14.579999923706055 -81.71099853515625,-14.579999923706055 C-81.71099853515625,-14.579999923706055 -89.99500274658203,-14.579999923706055 -89.99500274658203,-14.579999923706055 C-89.99500274658203,-14.579999923706055 -89.99500274658203,-17.365999221801758 -89.99500274658203,-17.365999221801758 C-89.99600219726562,-17.67099952697754 -90.24299621582031,-17.91699981689453 -90.5479965209961,-17.91699981689453 C-90.5479965209961,-17.91699981689453 -103.802001953125,-17.91699981689453 -103.802001953125,-17.91699981689453 C-104.10600280761719,-17.91900062561035 -104.35299682617188,-17.67300033569336 -104.3550033569336,-17.368999481201172 C-104.3550033569336,-17.368999481201172 -104.3550033569336,-17.365999221801758 -104.3550033569336,-17.365999221801758 C-104.3550033569336,-17.365999221801758 -104.3550033569336,-14.579999923706055 -104.3550033569336,-14.579999923706055 C-104.3550033569336,-14.579999923706055 -112.63200378417969,-14.579999923706055 -112.63200378417969,-14.579999923706055 C-112.63200378417969,-14.579999923706055 -112.63200378417969,-17.365999221801758 -112.63200378417969,-17.365999221801758 C-112.63200378417969,-17.67099952697754 -112.87799835205078,-17.91699981689453 -113.18199920654297,-17.91699981689453 C-113.18199920654297,-17.91699981689453 -113.18499755859375,-17.91699981689453 -113.18499755859375,-17.91699981689453 C-113.18499755859375,-17.91699981689453 -126.43599700927734,-17.91699981689453 -126.43599700927734,-17.91699981689453 C-126.74099731445312,-17.91900062561035 -126.98799896240234,-17.67300033569336 -126.98999786376953,-17.368999481201172 C-126.98999786376953,-17.368999481201172 -126.98999786376953,-17.365999221801758 -126.98999786376953,-17.365999221801758 C-126.98999786376953,-17.365999221801758 -126.98999786376953,-14.579999923706055 -126.98999786376953,-14.579999923706055 C-126.98999786376953,-14.579999923706055 -135.27099609375,-14.579999923706055 -135.27099609375,-14.579999923706055 C-135.27099609375,-14.579999923706055 -135.27099609375,-17.365999221801758 -135.27099609375,-17.365999221801758 C-135.27200317382812,-17.67099952697754 -135.52000427246094,-17.91699981689453 -135.8249969482422,-17.91699981689453 C-135.8249969482422,-17.91699981689453 -149.0780029296875,-17.91699981689453 -149.0780029296875,-17.91699981689453 C-149.3820037841797,-17.91900062561035 -149.6300048828125,-17.67300033569336 -149.63099670410156,-17.368999481201172 C-149.63099670410156,-17.368999481201172 -149.63099670410156,-17.365999221801758 -149.63099670410156,-17.365999221801758 C-149.63099670410156,-17.365999221801758 -149.63099670410156,-14.579999923706055 -149.63099670410156,-14.579999923706055 C-149.63099670410156,-14.579999923706055 -157.91000366210938,-14.579999923706055 -157.91000366210938,-14.579999923706055 C-157.91000366210938,-14.579999923706055 -157.91000366210938,-17.365999221801758 -157.91000366210938,-17.365999221801758 C-157.91200256347656,-17.67099952697754 -158.15899658203125,-17.91699981689453 -158.46400451660156,-17.91699981689453 C-158.46400451660156,-17.91699981689453 -171.7169952392578,-17.91699981689453 -171.7169952392578,-17.91699981689453 C-172.02099609375,-17.91900062561035 -172.2689971923828,-17.67300033569336 -172.27000427246094,-17.368999481201172 C-172.27099609375,-17.368000030517578 -172.27099609375,-17.367000579833984 -172.27099609375,-17.365999221801758 C-172.27099609375,-17.365999221801758 -172.27099609375,-14.579999923706055 -172.27099609375,-14.579999923706055 C-172.27099609375,-14.579999923706055 -180.5500030517578,-14.579999923706055 -180.5500030517578,-14.579999923706055 C-180.5500030517578,-14.579999923706055 -180.5500030517578,-17.365999221801758 -180.5500030517578,-17.365999221801758 C-180.55099487304688,-17.67099952697754 -180.7989959716797,-17.91699981689453 -181.10299682617188,-17.91699981689453 C-181.10299682617188,-17.91699981689453 -194.35699462890625,-17.91699981689453 -194.35699462890625,-17.91699981689453 C-194.66099548339844,-17.91900062561035 -194.9080047607422,-17.67300033569336 -194.91000366210938,-17.368999481201172 C-194.91000366210938,-17.368999481201172 -194.91000366210938,-17.365999221801758 -194.91000366210938,-17.365999221801758 C-194.91000366210938,-17.365999221801758 -194.91000366210938,-14.579999923706055 -194.91000366210938,-14.579999923706055 C-194.91000366210938,-14.579999923706055 -220.3179931640625,-14.579999923706055 -220.3179931640625,-14.579999923706055 C-227.63800048828125,-14.579999923706055 -233.57200622558594,-8.647000312805176 -233.57200622558594,-1.3270000219345093 C-233.57200622558594,-1.3270000219345093 -233.57200622558594,4.665999889373779 -233.57200622558594,4.665999889373779 C-233.57200622558594,11.984000205993652 -227.63900756835938,17.917999267578125 -220.3209991455078,17.91900062561035 C-220.3209991455078,17.91900062561035 220.31900024414062,17.91900062561035 220.31900024414062,17.91900062561035 C227.63900756835938,17.91900062561035 233.57200622558594,11.984999656677246 233.57200622558594,4.665999889373779 C233.57200622558594,4.665999889373779 233.57200622558594,-1.3339999914169312 233.57200622558594,-1.3339999914169312 C233.57200622558594,-8.652000427246094 227.64100646972656,-14.585000038146973 220.32200622558594,-14.585000038146973 C220.32200622558594,-14.585000038146973 220.31900024414062,-14.585000038146973 220.31900024414062,-14.585000038146973 C220.31900024414062,-14.585000038146973 220.3419952392578,-14.585000038146973 220.3419952392578,-14.585000038146973z"></path>
			</g>
			<g opacity="1" transform="matrix(1,0,0,1,103.2770004272461,176.10000610351562)">
				<path fill="rgb(62,60,85)" fill-opacity="1" d=" M0,47.979000091552734 C-26.49799919128418,47.979000091552734 -47.979000091552734,26.49799919128418 -47.979000091552734,0.0010000000474974513 C-47.979000091552734,-26.496999740600586 -26.49799919128418,-47.979000091552734 0,-47.979000091552734 C26.49799919128418,-47.979000091552734 47.979000091552734,-26.496999740600586 47.979000091552734,0.0010000000474974513 C47.979000091552734,26.49799919128418 26.49799919128418,47.979000091552734 0,47.979000091552734z M0,-46.71500015258789 C-25.80299949645996,-46.71500015258789 -46.720001220703125,-25.79800033569336 -46.720001220703125,0.004999999888241291 C-46.720001220703125,25.80699920654297 -25.80299949645996,46.724998474121094 0,46.724998474121094 C25.802000045776367,46.724998474121094 46.71900177001953,25.80699920654297 46.71900177001953,0.004999999888241291 C46.71900177001953,-25.79800033569336 25.802000045776367,-46.71500015258789 0,-46.71500015258789z"></path>
			</g>
			<g opacity="1" transform="matrix(1,0,0,1,450.7969970703125,21.423999786376953)">
				<path fill="rgb(62,60,85)" fill-opacity="1" d=" M-80.48999786376953,-0.6299999952316284 C-80.48999786376953,-0.6299999952316284 80.48999786376953,-0.6299999952316284 80.48999786376953,-0.6299999952316284 C80.48999786376953,-0.6299999952316284 80.48999786376953,0.6299999952316284 80.48999786376953,0.6299999952316284 C80.48999786376953,0.6299999952316284 -80.48999786376953,0.6299999952316284 -80.48999786376953,0.6299999952316284 C-80.48999786376953,0.6299999952316284 -80.48999786376953,-0.6299999952316284 -80.48999786376953,-0.6299999952316284z"></path>
			</g>
			<g opacity="1" transform="matrix(1,0,0,1,511.7770080566406,23.608999252319336)">
				<path fill="rgb(49,145,174)" fill-opacity="1" d=" M-8.605999946594238,-8.607000350952148 C-8.605999946594238,-8.607000350952148 8.605999946594238,-8.607000350952148 8.605999946594238,-8.607000350952148 C8.605999946594238,-8.607000350952148 8.605999946594238,8.607000350952148 8.605999946594238,8.607000350952148 C8.605999946594238,8.607000350952148 -8.605999946594238,8.607000350952148 -8.605999946594238,8.607000350952148 C-8.605999946594238,8.607000350952148 -8.605999946594238,-8.607000350952148 -8.605999946594238,-8.607000350952148z"></path>
			</g>
			<g opacity="1" transform="matrix(1,0,0,1,520.4459838867188,10.982000350952148)">
				<path fill="rgb(62,60,85)" fill-opacity="1" d=" M10.732000350952148,10.732000350952148 C10.732000350952148,10.732000350952148 -10.732000350952148,10.732000350952148 -10.732000350952148,10.732000350952148 C-10.732000350952148,10.732000350952148 -10.732000350952148,-10.732000350952148 -10.732000350952148,-10.732000350952148 C-10.732000350952148,-10.732000350952148 10.732000350952148,-10.732000350952148 10.732000350952148,-10.732000350952148 C10.732000350952148,-10.732000350952148 10.732000350952148,10.732000350952148 10.732000350952148,10.732000350952148z M-9.79800033569336,9.79699993133545 C-9.79800033569336,9.79699993133545 9.798999786376953,9.79699993133545 9.798999786376953,9.79699993133545 C9.798999786376953,9.79699993133545 9.798999786376953,-9.800999641418457 9.798999786376953,-9.800999641418457 C9.798999786376953,-9.800999641418457 -9.79800033569336,-9.800999641418457 -9.79800033569336,-9.800999641418457 C-9.79800033569336,-9.800999641418457 -9.79800033569336,9.79699993133545 -9.79800033569336,9.79699993133545z"></path>
			</g>
			<g opacity="1" transform="matrix(1,0,0,1,156.08200073242188,329.63299560546875)">
				<path fill="rgb(241,241,241)" fill-opacity="1" d=" M0,-37.4010009765625 C20.6560001373291,-37.4010009765625 37.400001525878906,-20.655000686645508 37.400001525878906,0 C37.400001525878906,20.656999588012695 20.6560001373291,37.4010009765625 0,37.4010009765625 C-20.6560001373291,37.4010009765625 -37.400001525878906,20.656999588012695 -37.400001525878906,0 C-37.400001525878906,-20.655000686645508 -20.6560001373291,-37.4010009765625 0,-37.4010009765625z"></path>
			</g>
		</g>
		<g transform="matrix(1.4936202764511108,0,0,1.4936202764511108,128.40992736816406,231.39675903320312)" opacity="1" style="display: block;">
			<g opacity="1" transform="matrix(1,0,0,1,-4.855000019073486,32.82699966430664)">
				<path fill="rgb(241,241,241)" fill-opacity="1" d=" M0,-31.128000259399414 C17.19099998474121,-31.128000259399414 31.12700080871582,-17.190000534057617 31.12700080871582,0.0010000000474974513 C31.12700080871582,17.191999435424805 17.19099998474121,31.128000259399414 0,31.128000259399414 C-17.19099998474121,31.128000259399414 -31.12700080871582,17.191999435424805 -31.12700080871582,0.0010000000474974513 C-31.12700080871582,-17.190000534057617 -17.19099998474121,-31.128000259399414 0,-31.128000259399414z"></path>
			</g>
		</g>
		<g transform="matrix(1.3633097410202026,0,0,1.3633097410202026,731.9915771484375,116.30238342285156)" opacity="1" style="display: block;">
			<g opacity="1" transform="matrix(1,0,0,1,68.38600158691406,136.8939971923828)">
				<path fill="rgb(62,60,85)" fill-opacity="1" d=" M68.13500213623047,-71.70099639892578 C68.13500213623047,-71.70099639892578 66.63300323486328,-71.70099639892578 66.63300323486328,-71.70099639892578 C66.63300323486328,-71.70099639892578 66.63300323486328,-112.83599853515625 66.63300323486328,-112.83599853515625 C66.63300323486328,-125.98500061035156 55.9739990234375,-136.6439971923828 42.82500076293945,-136.6439971923828 C42.82500076293945,-136.6439971923828 -44.32899856567383,-136.6439971923828 -44.32899856567383,-136.6439971923828 C-57.47700119018555,-136.6439971923828 -68.13500213623047,-125.98500061035156 -68.13500213623047,-112.83599853515625 C-68.13500213623047,-112.83599853515625 -68.13500213623047,112.83699798583984 -68.13500213623047,112.83699798583984 C-68.13500213623047,125.98500061035156 -57.47700119018555,136.6439971923828 -44.32899856567383,136.6439971923828 C-44.32899856567383,136.6439971923828 42.823001861572266,136.6439971923828 42.823001861572266,136.6439971923828 C55.97100067138672,136.6439971923828 66.62999725341797,125.98500061035156 66.62999725341797,112.83699798583984 C66.62999725341797,112.83699798583984 66.62999725341797,-42.41999816894531 66.62999725341797,-42.41999816894531 C66.62999725341797,-42.41999816894531 68.13300323486328,-42.41999816894531 68.13300323486328,-42.41999816894531 C68.13300323486328,-42.41999816894531 68.13500213623047,-71.70099639892578 68.13500213623047,-71.70099639892578z"></path>
			</g>
			<g opacity="1" transform="matrix(1,0,0,1,68.38800048828125,138.1300048828125)">
				<path fill="rgb(49,145,174)" fill-opacity="1" d=" M61.5629997253418,-112.67400360107422 C61.5629997253418,-112.67400360107422 61.5629997253418,112.66999816894531 61.5629997253418,112.66999816894531 C61.564998626708984,122.48999786376953 53.604000091552734,130.4510040283203 43.78499984741211,130.45199584960938 C43.78499984741211,130.45199584960938 43.78300094604492,130.45199584960938 43.78300094604492,130.45199584960938 C43.78300094604492,130.45199584960938 -43.78799819946289,130.45199584960938 -43.78799819946289,130.45199584960938 C-53.60599899291992,130.4510040283203 -61.566001892089844,122.49199676513672 -61.566001892089844,112.6719970703125 C-61.566001892089844,112.6719970703125 -61.566001892089844,-112.67400360107422 -61.566001892089844,-112.67400360107422 C-61.566001892089844,-122.49099731445312 -53.606998443603516,-130.44900512695312 -43.790000915527344,-130.4510040283203 C-43.790000915527344,-130.4510040283203 -33.16299819946289,-130.4510040283203 -33.16299819946289,-130.4510040283203 C-34.92399978637695,-126.13099670410156 -32.8489990234375,-121.2020034790039 -28.530000686645508,-119.44100189208984 C-27.517000198364258,-119.0270004272461 -26.43400001525879,-118.81600189208984 -25.34000015258789,-118.81600189208984 C-25.34000015258789,-118.81600189208984 24.586999893188477,-118.81600189208984 24.586999893188477,-118.81600189208984 C29.25200080871582,-118.81600189208984 33.03499984741211,-122.59600067138672 33.03499984741211,-127.26100158691406 C33.03499984741211,-128.35499572753906 32.823001861572266,-129.43800354003906 32.40999984741211,-130.4510040283203 C32.40999984741211,-130.4510040283203 43.78499984741211,-130.4510040283203 43.78499984741211,-130.4510040283203 C53.60300064086914,-130.45199584960938 61.564998626708984,-122.49400329589844 61.566001892089844,-112.67500305175781 C61.566001892089844,-112.67500305175781 61.566001892089844,-112.67400360107422 61.566001892089844,-112.67400360107422 C61.566001892089844,-112.67400360107422 61.5629997253418,-112.67400360107422 61.5629997253418,-112.67400360107422z"></path>
			</g>
			<g opacity="1" transform="matrix(1,0,0,1,68.38500213623047,160.1269989013672)">
				<path fill="rgb(62,60,85)" fill-opacity="1" d=" M-13.043000221252441,-3.865000009536743 C-13.043000221252441,-3.865000009536743 13.043000221252441,-3.865000009536743 13.043000221252441,-3.865000009536743 C13.043000221252441,-3.865000009536743 13.043000221252441,3.865999937057495 13.043000221252441,3.865999937057495 C13.043000221252441,3.865999937057495 -13.043000221252441,3.865999937057495 -13.043000221252441,3.865999937057495 C-13.043000221252441,3.865999937057495 -13.043000221252441,-3.865000009536743 -13.043000221252441,-3.865000009536743z"></path>
			</g>
			<g opacity="1" transform="matrix(1,0,0,1,68.38500213623047,97.73100280761719)">
				<path fill="rgb(62,60,85)" fill-opacity="1" d=" M-44.582000732421875,-1.656000018119812 C-44.582000732421875,-1.656000018119812 44.582000732421875,-1.656000018119812 44.582000732421875,-1.656000018119812 C44.582000732421875,-1.656000018119812 44.582000732421875,1.656000018119812 44.582000732421875,1.656000018119812 C44.582000732421875,1.656000018119812 -44.582000732421875,1.656000018119812 -44.582000732421875,1.656000018119812 C-44.582000732421875,1.656000018119812 -44.582000732421875,-1.656000018119812 -44.582000732421875,-1.656000018119812z"></path>
			</g>
			<g opacity="1" transform="matrix(1,0,0,1,68.38500213623047,108.22100067138672)">
				<path fill="rgb(62,60,85)" fill-opacity="1" d=" M-44.582000732421875,-1.656000018119812 C-44.582000732421875,-1.656000018119812 44.582000732421875,-1.656000018119812 44.582000732421875,-1.656000018119812 C44.582000732421875,-1.656000018119812 44.582000732421875,1.656000018119812 44.582000732421875,1.656000018119812 C44.582000732421875,1.656000018119812 -44.582000732421875,1.656000018119812 -44.582000732421875,1.656000018119812 C-44.582000732421875,1.656000018119812 -44.582000732421875,-1.656000018119812 -44.582000732421875,-1.656000018119812z"></path>
			</g>
			<g opacity="1" transform="matrix(1,0,0,1,68.38500213623047,118.71299743652344)">
				<path fill="rgb(62,60,85)" fill-opacity="1" d=" M-44.582000732421875,-1.656000018119812 C-44.582000732421875,-1.656000018119812 44.582000732421875,-1.656000018119812 44.582000732421875,-1.656000018119812 C44.582000732421875,-1.656000018119812 44.582000732421875,1.656000018119812 44.582000732421875,1.656000018119812 C44.582000732421875,1.656000018119812 -44.582000732421875,1.656000018119812 -44.582000732421875,1.656000018119812 C-44.582000732421875,1.656000018119812 -44.582000732421875,-1.656000018119812 -44.582000732421875,-1.656000018119812z"></path>
			</g>
			<g opacity="1" transform="matrix(1,0,0,1,68.38500213623047,129.2050018310547)">
				<path fill="rgb(62,60,85)" fill-opacity="1" d=" M-44.582000732421875,-1.656000018119812 C-44.582000732421875,-1.656000018119812 44.582000732421875,-1.656000018119812 44.582000732421875,-1.656000018119812 C44.582000732421875,-1.656000018119812 44.582000732421875,1.656000018119812 44.582000732421875,1.656000018119812 C44.582000732421875,1.656000018119812 -44.582000732421875,1.656000018119812 -44.582000732421875,1.656000018119812 C-44.582000732421875,1.656000018119812 -44.582000732421875,-1.656000018119812 -44.582000732421875,-1.656000018119812z"></path>
			</g>
			<g opacity="1" transform="matrix(1,0,0,1,68.38500213623047,139.69500732421875)">
				<path fill="rgb(62,60,85)" fill-opacity="1" d=" M-44.582000732421875,-1.656000018119812 C-44.582000732421875,-1.656000018119812 44.582000732421875,-1.656000018119812 44.582000732421875,-1.656000018119812 C44.582000732421875,-1.656000018119812 44.582000732421875,1.656000018119812 44.582000732421875,1.656000018119812 C44.582000732421875,1.656000018119812 -44.582000732421875,1.656000018119812 -44.582000732421875,1.656000018119812 C-44.582000732421875,1.656000018119812 -44.582000732421875,-1.656000018119812 -44.582000732421875,-1.656000018119812z"></path>
			</g>
			<g opacity="1" transform="matrix(1,0,0,1,63.76900100708008,59.805999755859375)">
				<path fill="rgb(241,241,241)" fill-opacity="1" d=" M-7.730999946594238,-7.730999946594238 C-7.730999946594238,-7.730999946594238 7.730999946594238,-7.730999946594238 7.730999946594238,-7.730999946594238 C7.730999946594238,-7.730999946594238 7.730999946594238,7.730999946594238 7.730999946594238,7.730999946594238 C7.730999946594238,7.730999946594238 -7.730999946594238,7.730999946594238 -7.730999946594238,7.730999946594238 C-7.730999946594238,7.730999946594238 -7.730999946594238,-7.730999946594238 -7.730999946594238,-7.730999946594238z"></path>
			</g>
			<g opacity="1" transform="matrix(1,0,0,1,71.34400177001953,65.33000183105469)">
				<path fill="rgb(62,60,85)" fill-opacity="1" d=" M-9.38700008392334,9.38700008392334 C-9.38700008392334,9.38700008392334 9.38700008392334,9.38700008392334 9.38700008392334,9.38700008392334 C9.38700008392334,9.38700008392334 9.38700008392334,-9.38700008392334 9.38700008392334,-9.38700008392334 C9.38700008392334,-9.38700008392334 -9.38700008392334,-9.38700008392334 -9.38700008392334,-9.38700008392334 C-9.38700008392334,-9.38700008392334 -9.38700008392334,9.38700008392334 -9.38700008392334,9.38700008392334z M8.562999725341797,8.562999725341797 C8.562999725341797,8.562999725341797 -8.583000183105469,8.562999725341797 -8.583000183105469,8.562999725341797 C-8.583000183105469,8.562999725341797 -8.583000183105469,-8.583000183105469 -8.583000183105469,-8.583000183105469 C-8.583000183105469,-8.583000183105469 8.562999725341797,-8.583000183105469 8.562999725341797,-8.583000183105469 C8.562999725341797,-8.583000183105469 8.562999725341797,8.562999725341797 8.562999725341797,8.562999725341797z"></path>
			</g>
		</g>
		<g transform="matrix(1.3633097410202026,0,0,1.3633097410202026,179.31861877441406,396.2954406738281)" opacity="1" style="display: block;">
			<g opacity="1" transform="matrix(1,0,0,1,37.650001525878906,37.6510009765625)">
				<path fill="rgb(49,145,174)" fill-opacity="1" d=" M0,-37.400001525878906 C20.6560001373291,-37.400001525878906 37.400001525878906,-20.6560001373291 37.400001525878906,0 C37.400001525878906,20.6560001373291 20.6560001373291,37.400001525878906 0,37.400001525878906 C-20.655000686645508,37.400001525878906 -37.400001525878906,20.6560001373291 -37.400001525878906,0 C-37.400001525878906,-20.6560001373291 -20.655000686645508,-37.400001525878906 0,-37.400001525878906z"></path>
			</g>
		</g>
		<g transform="matrix(1.3633097410202026,0,0,1.3633097410202026,175.27462768554688,292.800537109375)" opacity="1" style="display: block;">
			<g opacity="1" transform="matrix(1,0,0,1,366.39898681640625,143.79400634765625)">
				<path fill="rgb(62,60,85)" fill-opacity="1" d=" M-231.36700439453125,-0.6309999823570251 C-231.36700439453125,-0.6309999823570251 231.36700439453125,-0.6309999823570251 231.36700439453125,-0.6309999823570251 C231.36700439453125,-0.6309999823570251 231.36700439453125,0.6309999823570251 231.36700439453125,0.6309999823570251 C231.36700439453125,0.6309999823570251 -231.36700439453125,0.6309999823570251 -231.36700439453125,0.6309999823570251 C-231.36700439453125,0.6309999823570251 -231.36700439453125,-0.6309999823570251 -231.36700439453125,-0.6309999823570251z"></path>
			</g>
			<g opacity="1" transform="matrix(1,0,0,1,80.73999786376953,201.8719940185547)">
				<path fill="rgb(62,60,85)" fill-opacity="1" d=" M-80.48999786376953,-0.6309999823570251 C-80.48999786376953,-0.6309999823570251 80.48999786376953,-0.6309999823570251 80.48999786376953,-0.6309999823570251 C80.48999786376953,-0.6309999823570251 80.48999786376953,0.6309999823570251 80.48999786376953,0.6309999823570251 C80.48999786376953,0.6309999823570251 -80.48999786376953,0.6309999823570251 -80.48999786376953,0.6309999823570251 C-80.48999786376953,0.6309999823570251 -80.48999786376953,-0.6309999823570251 -80.48999786376953,-0.6309999823570251z"></path>
			</g>
			<g opacity="1" transform="matrix(1,0,0,1,186.04299926757812,145.84300231933594)">
				<path fill="rgb(49,145,174)" fill-opacity="1" d=" M-8.607000350952148,-9.835000038146973 C-8.607000350952148,-9.835000038146973 8.607000350952148,-9.835000038146973 8.607000350952148,-9.835000038146973 C8.607000350952148,-9.835000038146973 8.607000350952148,9.835000038146973 8.607000350952148,9.835000038146973 C8.607000350952148,9.835000038146973 -8.607000350952148,9.835000038146973 -8.607000350952148,9.835000038146973 C-8.607000350952148,9.835000038146973 -8.607000350952148,-9.835000038146973 -8.607000350952148,-9.835000038146973z"></path>
			</g>
			<g opacity="1" transform="matrix(1,0,0,1,193.63400268554688,133.3509979248047)">
				<path fill="rgb(62,60,85)" fill-opacity="1" d=" M10.732000350952148,10.732000350952148 C10.732000350952148,10.732000350952148 -10.732000350952148,10.732000350952148 -10.732000350952148,10.732000350952148 C-10.732000350952148,10.732000350952148 -10.732000350952148,-10.732000350952148 -10.732000350952148,-10.732000350952148 C-10.732000350952148,-10.732000350952148 10.732000350952148,-10.732000350952148 10.732000350952148,-10.732000350952148 C10.732000350952148,-10.732000350952148 10.732000350952148,10.732000350952148 10.732000350952148,10.732000350952148z M-9.79699993133545,9.800000190734863 C-9.79699993133545,9.800000190734863 9.800999641418457,9.800000190734863 9.800999641418457,9.800000190734863 C9.800999641418457,9.800000190734863 9.800999641418457,-9.79800033569336 9.800999641418457,-9.79800033569336 C9.800999641418457,-9.79800033569336 -9.79699993133545,-9.79800033569336 -9.79699993133545,-9.79800033569336 C-9.79699993133545,-9.79800033569336 -9.79699993133545,9.800000190734863 -9.79699993133545,9.800000190734863z"></path>
			</g>
			<g opacity="1" transform="matrix(1,0,0,1,568.406005859375,145.84300231933594)">
				<path fill="rgb(49,145,174)" fill-opacity="1" d=" M-7.375999927520752,-9.835000038146973 C-7.375999927520752,-9.835000038146973 7.375999927520752,-9.835000038146973 7.375999927520752,-9.835000038146973 C7.375999927520752,-9.835000038146973 7.375999927520752,9.835000038146973 7.375999927520752,9.835000038146973 C7.375999927520752,9.835000038146973 -7.375999927520752,9.835000038146973 -7.375999927520752,9.835000038146973 C-7.375999927520752,9.835000038146973 -7.375999927520752,-9.835000038146973 -7.375999927520752,-9.835000038146973z"></path>
			</g>
			<g opacity="1" transform="matrix(1,0,0,1,576.822021484375,133.3509979248047)">
				<path fill="rgb(62,60,85)" fill-opacity="1" d=" M10.732000350952148,10.732000350952148 C10.732000350952148,10.732000350952148 -10.732000350952148,10.732000350952148 -10.732000350952148,10.732000350952148 C-10.732000350952148,10.732000350952148 -10.732000350952148,-10.732000350952148 -10.732000350952148,-10.732000350952148 C-10.732000350952148,-10.732000350952148 10.732000350952148,-10.732000350952148 10.732000350952148,-10.732000350952148 C10.732000350952148,-10.732000350952148 10.732000350952148,10.732000350952148 10.732000350952148,10.732000350952148z M-9.79800033569336,9.800000190734863 C-9.79800033569336,9.800000190734863 9.800000190734863,9.800000190734863 9.800000190734863,9.800000190734863 C9.800000190734863,9.800000190734863 9.800000190734863,-9.79800033569336 9.800000190734863,-9.79800033569336 C9.800000190734863,-9.79800033569336 -9.79800033569336,-9.79800033569336 -9.79800033569336,-9.79800033569336 C-9.79800033569336,-9.79800033569336 -9.79800033569336,9.800000190734863 -9.79800033569336,9.800000190734863z"></path>
			</g>
			<g opacity="0.1" transform="matrix(1,0,0,1,477.8659973144531,69.56099700927734)">
				<path fill="rgb(0,0,0)" fill-opacity="1" d=" M61.56399917602539,27.71299934387207 C61.56399917602539,27.71299934387207 61.56399917602539,51.77799987792969 61.56399917602539,51.77799987792969 C61.564998626708984,61.5989990234375 53.60599899291992,69.56099700927734 43.7859992980957,69.56199645996094 C43.7859992980957,69.56199645996094 43.784000396728516,69.56199645996094 43.784000396728516,69.56199645996094 C43.784000396728516,69.56199645996094 -43.7869987487793,69.56199645996094 -43.7869987487793,69.56199645996094 C-53.60499954223633,69.56099700927734 -61.564998626708984,61.599998474121094 -61.564998626708984,51.78099822998047 C-61.564998626708984,51.78099822998047 -61.564998626708984,-69.56199645996094 -61.564998626708984,-69.56199645996094 C-61.564998626708984,-69.56199645996094 12.204000473022461,-11.28499984741211 12.204000473022461,-11.28499984741211 C12.204000473022461,-11.28499984741211 13.46399974822998,-10.286999702453613 13.46399974822998,-10.286999702453613 C13.46399974822998,-10.286999702453613 27.187999725341797,0.5519999861717224 27.187999725341797,0.5519999861717224 C27.187999725341797,0.5519999861717224 28.4689998626709,1.5670000314712524 28.4689998626709,1.5670000314712524 C28.4689998626709,1.5670000314712524 61.56399917602539,27.71299934387207 61.56399917602539,27.71299934387207z"></path>
			</g>
			<g opacity="1" transform="matrix(1,0,0,1,470.28900146484375,104.125)">
				<path fill="rgb(241,241,241)" fill-opacity="1" d=" M0,-27.69300079345703 C15.295000076293945,-27.69300079345703 27.691999435424805,-15.295000076293945 27.691999435424805,-0.0010000000474974513 C27.691999435424805,15.293000221252441 15.295000076293945,27.69300079345703 0,27.69300079345703 C-15.293999671936035,27.69300079345703 -27.691999435424805,15.293000221252441 -27.691999435424805,-0.0010000000474974513 C-27.691999435424805,-15.295000076293945 -15.293999671936035,-27.69300079345703 0,-27.69300079345703z"></path>
			</g>
			<g opacity="1" transform="matrix(1,0,0,1,80.74099731445312,147.58200073242188)">
				<path fill="rgb(62,60,85)" fill-opacity="1" d=" M0,54.922000885009766 C-30.33300018310547,54.922000885009766 -54.92300033569336,30.333999633789062 -54.92300033569336,0.0010000000474974513 C-54.92300033569336,-30.332000732421875 -30.33300018310547,-54.92300033569336 0,-54.92300033569336 C30.33300018310547,-54.92300033569336 54.92300033569336,-30.332000732421875 54.92300033569336,0.0010000000474974513 C54.92300033569336,30.333999633789062 30.33300018310547,54.922000885009766 0,54.922000885009766z M0,-53.659000396728516 C-29.635000228881836,-53.659000396728516 -53.659000396728516,-29.635000228881836 -53.659000396728516,0.0010000000474974513 C-53.659000396728516,29.63599967956543 -29.635000228881836,53.65800094604492 0,53.65800094604492 C29.635000228881836,53.65800094604492 53.659000396728516,29.63599967956543 53.659000396728516,0.0010000000474974513 C53.65999984741211,-29.634000778198242 29.636999130249023,-53.65999984741211 0.0020000000949949026,-53.6609992980957 C0.0020000000949949026,-53.6609992980957 0,-53.6609992980957 0,-53.6609992980957 C0,-53.6609992980957 0,-53.659000396728516 0,-53.659000396728516z"></path>
			</g>
			<g opacity="1" transform="matrix(1,0,0,1,478.45098876953125,90.76799774169922)">
				<path fill="rgb(62,60,85)" fill-opacity="1" d=" M0,34.72100067138672 C-19.174999237060547,34.72100067138672 -34.720001220703125,19.176000595092773 -34.720001220703125,0.0010000000474974513 C-34.720001220703125,-19.174999237060547 -19.174999237060547,-34.72100067138672 0,-34.72100067138672 C19.176000595092773,-34.72100067138672 34.720001220703125,-19.174999237060547 34.720001220703125,0.0010000000474974513 C34.720001220703125,19.176000595092773 19.176000595092773,34.72100067138672 0,34.72100067138672z M0,-33.45899963378906 C-18.479000091552734,-33.45899963378906 -33.45800018310547,-18.479000091552734 -33.45800018310547,0.0010000000474974513 C-33.45800018310547,18.479999542236328 -18.479000091552734,33.45899963378906 0,33.45899963378906 C18.479000091552734,33.45899963378906 33.45899963378906,18.479999542236328 33.45899963378906,0.0010000000474974513 C33.459999084472656,-18.479000091552734 18.481000900268555,-33.459999084472656 0.003000000026077032,-33.46200180053711 C0.003000000026077032,-33.46200180053711 0,-33.46200180053711 0,-33.46200180053711 C0,-33.46200180053711 0,-33.45899963378906 0,-33.45899963378906z"></path>
			</g>
		</g>
	</g>
</svg>